<svg id="flat" height="512" viewBox="0 0 512 512" width="512" xmlns="http://www.w3.org/2000/svg"><path d="m39.716 156h56.569v16h-56.569z" fill="#bed3f7" transform="matrix(.707 -.707 .707 .707 -96.052 96.125)"/><path d="m112 128h48v16h-48z" fill="#bed3f7"/><path d="m183.122 104h73.756v16h-73.756z" fill="#bed3f7" transform="matrix(.759 -.651 .651 .759 -19.927 170.128)"/><path d="m232 232v240a15.99555 15.99555 0 0 1 -16 16h-176a15.99555 15.99555 0 0 1 -16-16v-185.37a16.14437 16.14437 0 0 1 4.68994-11.32l54.62012-54.62a16.14443 16.14443 0 0 1 11.31982-4.69h121.37012a15.99552 15.99552 0 0 1 16 16z" fill="#548aff"/><path d="m88 217.45v46.55a15.99555 15.99555 0 0 1 -16 16h-46.55a15.82761 15.82761 0 0 1 3.24-4.69l54.62012-54.62a15.82323 15.82323 0 0 1 4.68988-3.24z" fill="#7dafff"/><g fill="#4976f2"><path d="m120 264h24v16h-24z"/><path d="m176 304h24v16h-24z"/><path d="m120 304h40v16h-40z"/><path d="m56 304h48v16h-48z"/><path d="m104 344h96v16h-96z"/><path d="m56 344h32v16h-32z"/><path d="m152 384h48v16h-48z"/><path d="m56 384h80v16h-80z"/><path d="m104 424h48v16h-48z"/><path d="m56 424h32v16h-32z"/></g><path d="m280 384h48v56h-48z" fill="#f5714f"/><path d="m328 336h48v104h-48z" fill="#4976f2"/><path d="m376 288h48v152h-48z" fill="#548aff"/><path d="m424 240h48v200h-48z" fill="#639aff"/><circle cx="40" cy="192" fill="#bed3f7" r="16"/><path d="m40 216a24 24 0 1 1 24-24 24.02718 24.02718 0 0 1 -24 24zm0-32a8 8 0 1 0 8 8 8.00917 8.00917 0 0 0 -8-8z" fill="#e0edff"/><circle cx="96" cy="136" fill="#bed3f7" r="16"/><path d="m96 160a24 24 0 1 1 24-24 24.02718 24.02718 0 0 1 -24 24zm0-32a8 8 0 1 0 8 8 8.00917 8.00917 0 0 0 -8-8z" fill="#e0edff"/><circle cx="176" cy="136" fill="#bed3f7" r="16"/><path d="m176 160a24 24 0 1 1 24-24 24.02718 24.02718 0 0 1 -24 24zm0-32a8 8 0 1 0 8 8 8.00917 8.00917 0 0 0 -8-8z" fill="#e0edff"/><circle cx="256" cy="80" fill="#bed3f7" r="16"/><path d="m256 104a24 24 0 1 1 24-24 24.02718 24.02718 0 0 1 -24 24zm0-32a8 8 0 1 0 8 8 8.00917 8.00917 0 0 0 -8-8z" fill="#e0edff"/><path d="m280 272h-80v-16h76.68652l82.05469-82.05518 11.31445 11.31348-84.39843 84.39844a8.00076 8.00076 0 0 1 -5.65723 2.34326z" fill="#bed3f7"/><path d="m488 120a96 96 0 1 1 -96-96 95.71673 95.71673 0 0 1 96 96z" fill="#ffc431"/><path d="m488 120h-96v-96a95.99912 95.99912 0 0 1 96 96z" fill="#548aff"/><path d="m488 120a95.71673 95.71673 0 0 1 -32.23 71.75l-63.77-71.75z" fill="#f5714f"/><circle cx="184" cy="264" fill="#bed3f7" r="16"/><path d="m184 288a24 24 0 1 1 24-24 24.02718 24.02718 0 0 1 -24 24zm0-32a8 8 0 1 0 8 8 8.00917 8.00917 0 0 0 -8-8z" fill="#e0edff"/><path d="m200 432h296v16h-296z" fill="#bed3f7"/><circle cx="192" cy="440" fill="#bed3f7" r="16"/><path d="m192 464a24 24 0 1 1 24-24 24.02718 24.02718 0 0 1 -24 24zm0-32a8 8 0 1 0 8 8 8.00917 8.00917 0 0 0 -8-8z" fill="#e0edff"/></svg>