<?xml version="1.0" encoding="iso-8859-1"?>
<!-- Generator: Adobe Illustrator 19.0.0, SVG Export Plug-In . SVG Version: 6.00 Build 0)  -->
<svg version="1.1" id="Capa_1" xmlns="http://www.w3.org/2000/svg" xmlns:xlink="http://www.w3.org/1999/xlink" x="0px" y="0px"
	 viewBox="0 0 512 512" style="enable-background:new 0 0 512 512;" xml:space="preserve">
<g>
	<path style="fill:#444455;" d="M497,309H15c-8.284,0-15-6.716-15-15l0,0c0-8.284,6.716-15,15-15h482c8.284,0,15,6.716,15,15l0,0
		C512,302.284,505.284,309,497,309z"/>
	<path style="fill:#444455;" d="M497,95H15C6.716,95,0,88.284,0,80l0,0c0-8.284,6.716-15,15-15h482c8.284,0,15,6.716,15,15l0,0
		C512,88.284,505.284,95,497,95z"/>
	<path style="fill:#444455;" d="M497,202H15c-8.284,0-15-6.716-15-15l0,0c0-8.284,6.716-15,15-15h482c8.284,0,15,6.716,15,15l0,0
		C512,195.284,505.284,202,497,202z"/>
</g>
<path style="fill:#FF5A51;" d="M168,125H98c-5.5,0-10-4.5-10-10V45c0-5.5,4.5-10,10-10h70c5.5,0,10,4.5,10,10v70
	C178,120.5,173.5,125,168,125z"/>
<path style="fill:#E75955;" d="M168,35h-30c5.5,0,10,4.5,10,10v70c0,5.5-4.5,10-10,10h30c5.5,0,10-4.5,10-10V45
	C178,39.5,173.5,35,168,35z"/>
<path style="fill:#FF993B;" d="M380,232h-70c-5.5,0-10-4.5-10-10v-70c0-5.5,4.5-10,10-10h70c5.5,0,10,4.5,10,10v70
	C390,227.5,385.5,232,380,232z"/>
<path style="fill:#FF7B48;" d="M380,142h-30c5.5,0,10,4.5,10,10v70c0,5.5-4.5,10-10,10h30c5.5,0,10-4.5,10-10v-70
	C390,146.5,385.5,142,380,142z"/>
<path style="fill:#BEC950;" d="M200.276,339h-70c-5.5,0-10-4.5-10-10v-70c0-5.5,4.5-10,10-10h70c5.5,0,10,4.5,10,10v70
	C210.276,334.5,205.776,339,200.276,339z"/>
<path style="fill:#58C357;" d="M200.276,248.841h-30c5.5,0,10,4.5,10,10v70c0,5.5-4.5,10-10,10h30c5.5,0,10-4.5,10-10v-70
	C210.276,253.341,205.776,248.841,200.276,248.841z"/>
<path style="fill:#00E7FF;" d="M450.984,435v38.168c0,2.116-1.716,3.832-3.832,3.832H334.816c-2.117,0-3.832-1.716-3.832-3.832V435
	H450.984z"/>
<path style="fill:#00CAE1;" d="M420.984,435v38.168c0,2.116-1.716,3.832-3.832,3.832h30c2.116,0,3.832-1.716,3.832-3.832V435
	H420.984z"/>
<path style="fill:#FFD681;" d="M468,331.827v98.987c0,8.939-7.24,16.186-16.172,16.186H329.633C304.431,447,284,426.551,284,401.327
	v-69.01c0-12.559,9.911-23.107,22.457-23.359c7.671-0.154,12.505,3.505,15.453,7.337c1.361,1.768,4.193,0.777,4.203-1.456
	l0.454-106.502c0.011-11.793,9.559-21.337,21.329-21.337c5.891,0,11.221,2.386,15.083,6.252s6.246,9.2,6.246,15.096v68.416
	c0,8.768,7.102,15.877,15.863,15.877h43.759C450.471,292.641,468,310.185,468,331.827z"/>
<path style="fill:#FFBD2A;" d="M428.848,292.641h-30.293c21.623,0,39.152,17.544,39.152,39.186v98.987
	c0,8.939-7.24,16.186-16.172,16.186h30.293c8.931,0,16.172-7.247,16.172-16.186v-98.987
	C468,310.185,450.471,292.641,428.848,292.641z"/>
<g>
</g>
<g>
</g>
<g>
</g>
<g>
</g>
<g>
</g>
<g>
</g>
<g>
</g>
<g>
</g>
<g>
</g>
<g>
</g>
<g>
</g>
<g>
</g>
<g>
</g>
<g>
</g>
<g>
</g>
</svg>
